<svg xmlns="http://www.w3.org/2000/svg" xmlns:xlink="http://www.w3.org/1999/xlink" width="500" zoomAndPan="magnify" viewBox="0 0 375 112.499997" height="150" preserveAspectRatio="xMidYMid meet" version="1.0"><defs><g/><clipPath id="3bc0bd6239"><path d="M 20 32 L 73 32 L 73 89.792969 L 20 89.792969 Z M 20 32 " clip-rule="nonzero"/></clipPath></defs><path fill="#79a40f" d="M 54.644531 60.792969 C 54.644531 61.320312 54.59375 61.84375 54.492188 62.359375 C 54.386719 62.878906 54.234375 63.382812 54.03125 63.871094 C 53.832031 64.359375 53.582031 64.820312 53.289062 65.261719 C 52.996094 65.699219 52.664062 66.105469 52.289062 66.480469 C 51.914062 66.855469 51.507812 67.1875 51.070312 67.480469 C 50.628906 67.773438 50.167969 68.023438 49.679688 68.222656 C 49.191406 68.425781 48.6875 68.578125 48.167969 68.683594 C 47.652344 68.785156 47.128906 68.835938 46.601562 68.835938 C 46.070312 68.835938 45.546875 68.785156 45.03125 68.683594 C 44.511719 68.578125 44.007812 68.425781 43.519531 68.222656 C 43.03125 68.023438 42.570312 67.773438 42.128906 67.480469 C 41.691406 67.1875 41.285156 66.855469 40.910156 66.480469 C 40.539062 66.105469 40.203125 65.699219 39.910156 65.261719 C 39.617188 64.820312 39.367188 64.359375 39.167969 63.871094 C 38.964844 63.382812 38.8125 62.878906 38.710938 62.359375 C 38.605469 61.84375 38.554688 61.320312 38.554688 60.792969 C 38.554688 60.261719 38.605469 59.738281 38.710938 59.222656 C 38.8125 58.703125 38.964844 58.199219 39.167969 57.710938 C 39.367188 57.222656 39.617188 56.761719 39.910156 56.320312 C 40.203125 55.882812 40.539062 55.476562 40.910156 55.101562 C 41.285156 54.730469 41.691406 54.394531 42.128906 54.101562 C 42.570312 53.808594 43.03125 53.558594 43.519531 53.359375 C 44.007812 53.15625 44.511719 53.003906 45.03125 52.898438 C 45.546875 52.796875 46.070312 52.746094 46.601562 52.746094 C 47.128906 52.746094 47.652344 52.796875 48.167969 52.898438 C 48.6875 53.003906 49.191406 53.15625 49.679688 53.359375 C 50.167969 53.558594 50.628906 53.808594 51.070312 54.101562 C 51.507812 54.394531 51.914062 54.730469 52.289062 55.101562 C 52.664062 55.476562 52.996094 55.882812 53.289062 56.320312 C 53.582031 56.761719 53.832031 57.222656 54.03125 57.710938 C 54.234375 58.199219 54.386719 58.703125 54.492188 59.222656 C 54.59375 59.738281 54.644531 60.261719 54.644531 60.792969 Z M 54.644531 60.792969 " fill-opacity="1" fill-rule="nonzero"/><g clip-path="url(#3bc0bd6239)"><path fill="#79a40f" d="M 68.433594 43.28125 L 65.539062 41.613281 L 65.539062 61.496094 L 65.527344 61.496094 C 65.5 62.167969 65.441406 62.835938 65.34375 63.503906 C 65.246094 64.167969 65.113281 64.828125 64.949219 65.480469 C 64.78125 66.132812 64.578125 66.773438 64.34375 67.402344 C 64.109375 68.035156 63.839844 68.648438 63.539062 69.25 C 63.238281 69.851562 62.90625 70.4375 62.542969 71.003906 C 62.179688 71.570312 61.789062 72.113281 61.367188 72.640625 C 60.945312 73.164062 60.496094 73.664062 60.023438 74.140625 C 59.546875 74.617188 59.046875 75.066406 58.523438 75.492188 C 58.003906 75.914062 57.457031 76.308594 56.894531 76.675781 C 56.328125 77.039062 55.746094 77.375 55.144531 77.679688 C 54.546875 77.980469 53.929688 78.253906 53.300781 78.488281 C 52.671875 78.726562 52.03125 78.933594 51.378906 79.101562 C 50.730469 79.269531 50.070312 79.40625 49.40625 79.503906 C 48.738281 79.605469 48.070312 79.667969 47.398438 79.695312 C 46.726562 79.722656 46.054688 79.714844 45.382812 79.671875 C 44.710938 79.628906 44.042969 79.550781 43.382812 79.433594 C 42.71875 79.320312 42.0625 79.171875 41.417969 78.988281 C 40.769531 78.800781 40.132812 78.582031 39.511719 78.332031 C 38.886719 78.078125 38.277344 77.792969 37.683594 77.476562 C 37.089844 77.160156 36.515625 76.8125 35.960938 76.433594 C 35.402344 76.054688 34.871094 75.648438 34.355469 75.210938 C 33.84375 74.777344 33.355469 74.316406 32.890625 73.828125 C 32.429688 73.339844 31.992188 72.828125 31.582031 72.296875 C 31.171875 71.761719 30.792969 71.207031 30.441406 70.632812 C 30.09375 70.058594 29.773438 69.464844 29.488281 68.859375 C 29.199219 68.25 28.945312 67.628906 28.726562 66.992188 C 28.503906 66.355469 28.320312 65.710938 28.167969 65.054688 C 28.015625 64.398438 27.898438 63.738281 27.816406 63.070312 C 27.734375 62.402344 27.691406 61.730469 27.679688 61.058594 C 27.671875 60.386719 27.695312 59.714844 27.757812 59.046875 C 27.820312 58.375 27.917969 57.710938 28.050781 57.050781 C 28.183594 56.390625 28.347656 55.742188 28.550781 55.097656 C 28.753906 54.457031 28.988281 53.828125 29.257812 53.210938 C 29.527344 52.59375 29.828125 51.992188 30.160156 51.410156 C 30.492188 50.824219 30.855469 50.257812 31.25 49.714844 C 31.644531 49.167969 32.066406 48.644531 32.515625 48.144531 C 32.964844 47.640625 33.4375 47.167969 33.9375 46.714844 C 34.4375 46.265625 34.960938 45.84375 35.503906 45.449219 C 36.050781 45.054688 36.613281 44.691406 37.199219 44.355469 C 37.78125 44.019531 38.382812 43.71875 38.996094 43.449219 C 39.613281 43.175781 40.242188 42.941406 40.882812 42.738281 C 41.523438 42.535156 42.175781 42.363281 42.835938 42.230469 C 43.492188 42.097656 44.160156 41.996094 44.828125 41.933594 C 45.5 41.871094 46.167969 41.84375 46.84375 41.851562 C 47.515625 41.859375 48.183594 41.902344 48.855469 41.984375 C 49.523438 42.0625 50.183594 42.179688 50.839844 42.328125 C 51.496094 42.480469 52.140625 42.664062 52.777344 42.882812 C 53.414062 43.101562 54.035156 43.355469 54.644531 43.640625 L 54.644531 35.324219 L 51.101562 33.277344 C 50.414062 32.882812 49.691406 32.582031 48.929688 32.378906 C 48.167969 32.171875 47.390625 32.070312 46.601562 32.070312 C 45.808594 32.070312 45.035156 32.171875 44.269531 32.378906 C 43.507812 32.582031 42.785156 32.882812 42.101562 33.277344 L 24.765625 43.28125 C 24.082031 43.679688 23.460938 44.15625 22.902344 44.714844 C 22.34375 45.273438 21.867188 45.894531 21.472656 46.578125 C 21.078125 47.261719 20.777344 47.984375 20.574219 48.746094 C 20.371094 49.511719 20.265625 50.289062 20.265625 51.078125 L 20.265625 71.089844 C 20.265625 71.878906 20.371094 72.65625 20.574219 73.417969 C 20.777344 74.183594 21.078125 74.90625 21.472656 75.589844 C 21.867188 76.273438 22.34375 76.894531 22.902344 77.453125 C 23.460938 78.011719 24.082031 78.488281 24.765625 78.882812 L 42.101562 88.890625 C 42.785156 89.285156 43.507812 89.585938 44.269531 89.789062 C 45.035156 89.992188 45.808594 90.09375 46.601562 90.09375 C 47.390625 90.09375 48.167969 89.992188 48.929688 89.789062 C 49.691406 89.585938 50.414062 89.285156 51.101562 88.890625 L 68.433594 78.882812 C 69.117188 78.488281 69.738281 78.011719 70.296875 77.453125 C 70.855469 76.894531 71.332031 76.273438 71.726562 75.589844 C 72.121094 74.902344 72.421875 74.179688 72.625 73.417969 C 72.828125 72.65625 72.933594 71.878906 72.933594 71.089844 L 72.933594 51.078125 C 72.933594 50.289062 72.828125 49.511719 72.625 48.746094 C 72.421875 47.984375 72.121094 47.261719 71.726562 46.578125 C 71.332031 45.894531 70.855469 45.273438 70.296875 44.714844 C 69.738281 44.15625 69.117188 43.679688 68.433594 43.28125 Z M 68.433594 43.28125 " fill-opacity="1" fill-rule="nonzero"/></g><g fill="#000000" fill-opacity="1"><g transform="translate(82.650921, 74.800832)"><g><path d="M 3.617188 -3.289062 C 3.617188 -1.152344 4.496094 0.710938 7.621094 0.710938 C 10.746094 0.710938 11.621094 -1.152344 11.621094 -3.289062 L 11.621094 -12.609375 C 11.621094 -19.242188 13.375 -21.492188 16.613281 -21.492188 L 18.035156 -21.492188 C 20.011719 -21.492188 21.984375 -22.53125 21.984375 -25.492188 C 21.984375 -27.742188 20.121094 -29.386719 17.597656 -29.386719 C 13.707031 -29.386719 11.898438 -25.929688 10.964844 -22.585938 L 10.855469 -22.585938 L 10.855469 -25.65625 C 10.855469 -28.070312 9.265625 -29.386719 7.238281 -29.386719 C 5.207031 -29.386719 3.617188 -28.070312 3.617188 -25.65625 Z M 3.617188 -3.289062 "/></g></g></g><g fill="#000000" fill-opacity="1"><g transform="translate(118.66734, 74.800832)"><g><path d="M 28.070312 -12.828125 C 30.757812 -12.828125 31.578125 -13.542969 31.578125 -16.28125 C 31.578125 -22.859375 26.316406 -29.386719 17.105469 -29.386719 C 7.621094 -29.386719 1.972656 -23.136719 1.972656 -13.816406 C 1.972656 -6.851562 6.195312 0.710938 17.378906 0.710938 C 22.203125 0.710938 29.933594 -1.535156 29.933594 -6.359375 C 29.933594 -7.839844 28.5625 -9.484375 26.644531 -9.484375 C 23.410156 -9.484375 23.410156 -5.539062 17.378906 -5.539062 C 12.71875 -5.539062 9.976562 -8.605469 9.976562 -12.828125 Z M 9.976562 -17.433594 C 10.855469 -21.328125 13.265625 -23.792969 17.269531 -23.792969 C 20.832031 -23.792969 23.574219 -21.105469 24.011719 -17.433594 Z M 9.976562 -17.433594 "/></g></g></g><g fill="#000000" fill-opacity="1"><g transform="translate(165.920676, 74.800832)"><g><path d="M 1.644531 -13.761719 C 1.644531 -5.371094 6.304688 0.710938 16.171875 0.710938 C 24.394531 0.710938 28.34375 -4.113281 28.34375 -7.621094 C 28.34375 -9.210938 27.027344 -10.691406 25 -10.691406 C 20.777344 -10.691406 21.984375 -5.539062 16.390625 -5.539062 C 12.007812 -5.539062 9.648438 -8.773438 9.648438 -13.761719 C 9.648438 -20.996094 13.320312 -23.136719 16.445312 -23.136719 C 22.203125 -23.136719 20.832031 -18.421875 24.617188 -18.421875 C 26.644531 -18.421875 28.34375 -19.570312 28.34375 -21.875 C 28.34375 -25.601562 23.355469 -29.386719 16.667969 -29.386719 C 6.851562 -29.386719 1.644531 -22.972656 1.644531 -13.761719 Z M 1.644531 -13.761719 "/></g></g></g><g fill="#000000" fill-opacity="1"><g transform="translate(209.062941, 74.800832)"><g><path d="M 3.617188 -3.289062 C 3.617188 -1.152344 4.496094 0.710938 7.621094 0.710938 C 10.746094 0.710938 11.621094 -1.152344 11.621094 -3.289062 L 11.621094 -25.382812 C 11.621094 -27.519531 10.746094 -29.386719 7.621094 -29.386719 C 4.496094 -29.386719 3.617188 -27.519531 3.617188 -25.382812 Z M 3.453125 -36.238281 C 3.453125 -33.9375 5.316406 -32.070312 7.621094 -32.070312 C 9.921875 -32.070312 11.785156 -33.9375 11.785156 -36.238281 C 11.785156 -38.539062 9.921875 -40.40625 7.621094 -40.40625 C 5.316406 -40.40625 3.453125 -38.539062 3.453125 -36.238281 Z M 3.453125 -36.238281 "/></g></g></g><g fill="#000000" fill-opacity="1"><g transform="translate(238.008326, 74.800832)"><g><path d="M 3.179688 7.347656 C 3.179688 9.976562 4.769531 11.347656 7.183594 11.347656 C 9.59375 11.347656 11.183594 9.976562 11.183594 7.347656 L 11.183594 -3.34375 L 11.292969 -3.34375 C 12.773438 -0.765625 15.515625 0.710938 19.1875 0.710938 C 27.632812 0.710938 31.523438 -6.46875 31.523438 -14.144531 C 31.523438 -24.507812 25.65625 -29.386719 18.96875 -29.386719 C 15.078125 -29.386719 11.84375 -27.742188 10.527344 -24.339844 L 10.417969 -24.339844 L 10.417969 -25.601562 C 10.417969 -28.070312 9.15625 -29.386719 6.796875 -29.386719 C 4.332031 -29.386719 3.179688 -28.070312 3.179688 -25.601562 Z M 23.519531 -14.417969 C 23.519531 -10.691406 22.257812 -5.539062 17.160156 -5.539062 C 12.28125 -5.480469 10.746094 -10.308594 10.746094 -14.417969 C 10.746094 -18.96875 12.5 -23.136719 17.160156 -23.136719 C 21.4375 -23.027344 23.519531 -19.132812 23.519531 -14.417969 Z M 23.519531 -14.417969 "/></g></g></g><g fill="#000000" fill-opacity="1"><g transform="translate(285.206853, 74.800832)"><g><path d="M 28.070312 -12.828125 C 30.757812 -12.828125 31.578125 -13.542969 31.578125 -16.28125 C 31.578125 -22.859375 26.316406 -29.386719 17.105469 -29.386719 C 7.621094 -29.386719 1.972656 -23.136719 1.972656 -13.816406 C 1.972656 -6.851562 6.195312 0.710938 17.378906 0.710938 C 22.203125 0.710938 29.933594 -1.535156 29.933594 -6.359375 C 29.933594 -7.839844 28.5625 -9.484375 26.644531 -9.484375 C 23.410156 -9.484375 23.410156 -5.539062 17.378906 -5.539062 C 12.71875 -5.539062 9.976562 -8.605469 9.976562 -12.828125 Z M 9.976562 -17.433594 C 10.855469 -21.328125 13.265625 -23.792969 17.269531 -23.792969 C 20.832031 -23.792969 23.574219 -21.105469 24.011719 -17.433594 Z M 9.976562 -17.433594 "/></g></g></g><g fill="#000000" fill-opacity="1"><g transform="translate(332.460179, 74.800832)"><g><path d="M 1.917969 -20.449219 C 1.917969 -15.078125 5.539062 -13.15625 10.195312 -12.007812 L 14.910156 -10.855469 C 17.761719 -10.140625 19.515625 -9.8125 19.515625 -7.785156 C 19.515625 -6.140625 17.707031 -4.878906 14.855469 -4.878906 C 8.9375 -4.878906 8.605469 -9.8125 5.152344 -9.8125 C 2.90625 -9.8125 1.917969 -8.222656 1.917969 -6.46875 C 1.917969 -2.523438 7.949219 0.710938 15.1875 0.710938 C 21.214844 0.710938 27.519531 -2.300781 27.519531 -8.828125 C 27.519531 -14.417969 22.09375 -16.335938 17.542969 -17.378906 L 14.199219 -18.148438 C 11.730469 -18.695312 9.921875 -19.132812 9.921875 -20.996094 C 9.921875 -22.695312 11.730469 -23.464844 14.527344 -23.464844 C 19.570312 -23.464844 19.679688 -19.792969 22.804688 -19.792969 C 24.890625 -19.792969 26.152344 -21.4375 26.152344 -23.300781 C 26.152344 -26.972656 20.011719 -29.386719 13.925781 -29.386719 C 8.386719 -29.386719 1.917969 -26.972656 1.917969 -20.449219 Z M 1.917969 -20.449219 "/></g></g></g></svg>